<svg width="26" height="23" viewBox="0 0 26 23" fill="none" xmlns="http://www.w3.org/2000/svg">
<path fill-rule="evenodd" clip-rule="evenodd" d="M19.997 14.3553C19.997 14.3553 19.4757 14.4236 18.9733 14.3429L18.9256 14.529C18.9083 14.5974 18.8926 14.6945 18.8803 14.8173C18.8688 14.9408 18.863 15.0594 18.863 15.1796C18.863 15.4827 18.9371 15.6976 19.0903 15.8376C19.236 15.9702 19.4172 16.0377 19.6264 16.0377C19.6264 16.0377 19.8973 16.0385 19.9855 16.0377C21.8417 16.0377 25.3516 14.7835 25.3516 10.035C25.3516 5.58796 21.1252 4.52972 20.2786 4.36337L20.1823 4.34443L20.1353 4.25878C19.4823 3.06714 17.4778 0.294312 12.9797 0.294312C7.13181 0.294312 5.43369 5.54102 5.15287 6.59266L5.1191 6.71702L4.9931 6.74255C3.97275 6.94843 0.647339 7.89055 0.647339 11.3625C0.647339 14.9531 3.61863 15.9908 5.18993 16.0377H5.58522C5.79522 16.0377 5.9764 15.9702 6.12216 15.8376C6.27534 15.6976 6.34946 15.4827 6.34946 15.1796C6.34946 15.0594 6.34452 14.9408 6.33216 14.8173C6.31981 14.6945 6.30499 14.5974 6.28769 14.529L6.23993 14.3429C5.73757 14.4236 5.21628 14.3553 5.21628 14.3553C4.91981 14.3462 2.37757 14.1889 2.37757 11.3625C2.37757 9.15961 4.59699 8.40855 5.90887 8.31219L6.59405 8.26278L6.69946 7.60149C6.73652 7.37172 7.67205 1.97678 12.9797 1.97678C17.4012 1.97678 18.7246 5.26102 18.779 5.40102L18.9692 5.89266L19.5037 5.94867C19.9253 5.99396 23.6222 6.48725 23.6222 10.035C23.6222 14.2334 20.3577 14.3544 19.9855 14.3544" fill="#4A4A4A"/>
<path fill-rule="evenodd" clip-rule="evenodd" d="M9.92271 12.4824H8.91307C8.73765 12.4824 8.59436 12.6257 8.59436 12.8011V15.4578C8.59436 15.6332 8.73765 15.7765 8.91307 15.7765H9.92271C10.0981 15.7765 10.2414 15.6332 10.2414 15.4578V12.8011C10.2414 12.6257 10.0981 12.4824 9.92271 12.4824ZM16.5109 12.4824H15.5013C15.3259 12.4824 15.1826 12.6257 15.1826 12.8011V15.4578C15.1826 15.6332 15.3259 15.7765 15.5013 15.7765H16.5109C16.6864 15.7765 16.8297 15.6332 16.8297 15.4578V12.8011C16.8297 12.6257 16.6864 12.4824 16.5109 12.4824ZM9.92271 17.4235H8.91307C8.73765 17.4235 8.59436 17.5668 8.59436 17.7422V20.3989C8.59436 20.5744 8.73765 20.7177 8.91307 20.7177H9.92271C10.0981 20.7177 10.2414 20.5744 10.2414 20.3989V17.7422C10.2414 17.5668 10.0981 17.4235 9.92271 17.4235ZM16.5109 17.4235H15.5013C15.3259 17.4235 15.1826 17.5668 15.1826 17.7422V20.3989C15.1826 20.5744 15.3259 20.7177 15.5013 20.7177H16.5109C16.6864 20.7177 16.8297 20.5744 16.8297 20.3989V17.7422C16.8297 17.5668 16.6864 17.4235 16.5109 17.4235ZM13.2168 14.1294H12.2072C12.0318 14.1294 11.8885 14.2727 11.8885 14.4481V17.1048C11.8885 17.2802 12.0318 17.4235 12.2072 17.4235H13.2168C13.3922 17.4235 13.5355 17.2802 13.5355 17.1048V14.4481C13.5355 14.2727 13.3922 14.1294 13.2168 14.1294ZM13.2168 19.0706H12.2072C12.0318 19.0706 11.8885 19.2139 11.8885 19.3893V22.046C11.8885 22.2214 12.0318 22.3647 12.2072 22.3647H13.2168C13.3922 22.3647 13.5355 22.2214 13.5355 22.046V19.3893C13.5355 19.2139 13.3922 19.0706 13.2168 19.0706Z" fill="#0072C9"/>
</svg>
