<svg xmlns="http://www.w3.org/2000/svg" width="114" height="110" class="inline-DS-EntryPoint1-1" style="transform:rotate(-2deg)"><path fill="#fff" fill-opacity=".5" fill-rule="evenodd" d="M55.05 3.008a54.1 54.1 0 0 1 1.9 0 1 1 0 1 0 .035-2 56.055 56.055 0 0 0-1.97 0 1 1 0 0 0 .035 2Zm7.808-1.585a1 1 0 0 0-.247 1.985c.627.078 1.251.167 1.872.267A1 1 0 0 0 64.8 1.7a54.964 54.964 0 0 0-1.942-.277ZM49.389 3.408a1 1 0 0 0-.247-1.985c-.65.081-1.298.174-1.942.277a1 1 0 0 0 .317 1.975c.62-.1 1.245-.189 1.872-.267Zm21.167-.461a1 1 0 1 0-.528 1.93c.61.166 1.214.343 1.814.53A1 1 0 0 0 72.44 3.5a54.659 54.659 0 0 0-1.883-.552Zm-28.584 1.93a1 1 0 0 0-.528-1.93c-.632.173-1.26.357-1.883.552a1 1 0 1 0 .597 1.909c.6-.188 1.205-.365 1.814-.532Zm35.985.681a1 1 0 0 0-.799 1.834c.579.252 1.152.514 1.72.786a1 1 0 1 0 .865-1.803 54.752 54.752 0 0 0-1.786-.817ZM34.842 7.392a1 1 0 0 0-.8-1.834c-.6.262-1.195.534-1.785.817a1 1 0 0 0 .865 1.803 52.879 52.879 0 0 1 1.72-.786Zm50.067 1.81a1 1 0 0 0-1.053 1.7c.537.332 1.067.674 1.59 1.024a1 1 0 1 0 1.114-1.662 55.018 55.018 0 0 0-1.651-1.063Zm-56.765 1.7a1 1 0 1 0-1.053-1.7c-.557.344-1.107.699-1.65 1.063a1 1 0 1 0 1.112 1.661c.524-.35 1.054-.692 1.59-1.024Zm63.127 2.895a1 1 0 0 0-1.284 1.534c.484.404.96.818 1.43 1.24a1 1 0 1 0 1.337-1.488 55.337 55.337 0 0 0-1.484-1.287ZM22.013 15.33a1 1 0 1 0-1.284-1.534c-.502.42-.996.848-1.483 1.286a1 1 0 0 0 1.337 1.487c.47-.421.946-.835 1.43-1.24Zm74.904 3.915a1 1 0 0 0-1.487 1.337c.421.47.835.946 1.24 1.43a1 1 0 1 0 1.534-1.284c-.42-.502-.85-.996-1.287-1.483ZM16.57 20.583a1 1 0 1 0-1.487-1.337c-.438.487-.866.981-1.287 1.484a1 1 0 0 0 1.535 1.283c.404-.484.818-.96 1.24-1.43Zm85.165 4.857a1 1 0 1 0-1.661 1.113c.35.524.692 1.054 1.024 1.59a1 1 0 0 0 1.701-1.052c-.345-.557-.7-1.107-1.064-1.65Zm-89.809 1.113a1 1 0 1 0-1.662-1.113 55.018 55.018 0 0 0-1.063 1.651 1 1 0 0 0 1.701 1.053c.332-.537.674-1.067 1.024-1.59Zm93.699 5.704a1 1 0 1 0-1.803.865c.272.568.534 1.141.786 1.72a1 1 0 0 0 1.834-.8c-.262-.6-.534-1.195-.817-1.785Zm-97.447.865a1 1 0 1 0-1.803-.865c-.283.59-.555 1.185-.817 1.786a1 1 0 0 0 1.834.799c.252-.579.514-1.152.786-1.72Zm100.323 6.439a1 1 0 0 0-1.909.597c.188.6.365 1.205.532 1.814a1 1 0 1 0 1.929-.528 54.106 54.106 0 0 0-.552-1.883Zm-103.093.597a1 1 0 0 0-1.909-.597c-.195.623-.379 1.25-.552 1.883a1 1 0 1 0 1.93.528c.166-.61.343-1.214.53-1.814ZM110.3 47.2a1 1 0 0 0-1.975.317c.1.62.189 1.245.267 1.872a1 1 0 0 0 1.985-.247 56.3 56.3 0 0 0-.277-1.942Zm-106.625.317A1 1 0 0 0 1.7 47.2a54.964 54.964 0 0 0-.277 1.942 1 1 0 0 0 1.985.247c.078-.627.167-1.251.267-1.872Zm105.354 7.244A1 1 0 0 1 111 55l-.002.5.002.5a1 1 0 0 1-1.971.239.986.986 0 0 1-.037-.289l.006-.45-.006-.45a.986.986 0 0 1 .037-.289ZM1.002 55.5A55.88 55.88 0 0 1 1 55a1 1 0 0 1 1.972-.238 1 1 0 0 1 .036.288l-.006.45.006.45a1 1 0 0 1-.036.288A1 1 0 0 1 1 56c0-.167 0-.334.002-.5Zm54.048 52.492a60.042 60.042 0 0 0 1.9 0 1 1 0 1 1 .035 1.999 53.814 53.814 0 0 1-1.97 0 1 1 0 1 1 .035-1.999Zm7.808 1.585a1 1 0 0 1-.247-1.985 52.342 52.342 0 0 0 1.872-.267 1 1 0 1 1 .317 1.975 56.3 56.3 0 0 1-1.942.277Zm-13.469-1.985a1 1 0 0 1-.247 1.985 56.3 56.3 0 0 1-1.942-.277 1 1 0 0 1 .317-1.975c.62.1 1.245.189 1.872.267Zm21.167.461a1 1 0 0 1-.528-1.929c.61-.167 1.214-.344 1.814-.532a1 1 0 0 1 .597 1.909 54.17 54.17 0 0 1-1.883.552Zm-28.584-1.929a1 1 0 1 1-.528 1.929 54.106 54.106 0 0 1-1.883-.552 1 1 0 0 1 .597-1.909c.6.188 1.205.365 1.814.532Zm35.985-.682a1 1 0 1 1-.799-1.834 52.475 52.475 0 0 0 1.72-.786 1 1 0 1 1 .865 1.803c-.59.283-1.185.555-1.786.817Zm-43.115-1.834a1 1 0 0 1-.8 1.834c-.6-.262-1.195-.534-1.785-.817a1 1 0 1 1 .865-1.803c.568.272 1.141.534 1.72.786Zm50.067-1.809a1.001 1.001 0 0 1-1.053-1.701 53.022 53.022 0 0 0 1.59-1.024 1 1 0 1 1 1.114 1.662c-.544.363-1.094.718-1.651 1.063Zm-56.765-1.701a1 1 0 0 1-1.053 1.701c-.557-.345-1.107-.7-1.65-1.064a1 1 0 1 1 1.112-1.661c.524.35 1.054.692 1.59 1.024Zm63.127-2.894a1 1 0 1 1-1.284-1.534c.484-.405.96-.819 1.43-1.24a1 1 0 1 1 1.337 1.487c-.487.438-.981.866-1.484 1.287ZM22.013 95.67a1 1 0 1 1-1.284 1.534c-.502-.42-.996-.85-1.483-1.287a1 1 0 0 1 1.337-1.487c.47.421.946.835 1.43 1.24Zm74.904-3.916a1 1 0 0 1-1.487-1.337c.421-.47.835-.946 1.24-1.43a1 1 0 1 1 1.534 1.284c-.42.502-.85.996-1.287 1.483ZM16.57 90.417a1 1 0 1 1-1.487 1.337 55.177 55.177 0 0 1-1.287-1.484 1 1 0 0 1 1.535-1.283c.404.484.818.96 1.24 1.43Zm85.165-4.857a1 1 0 1 1-1.661-1.113c.35-.524.692-1.054 1.024-1.59a1 1 0 0 1 1.701 1.052c-.345.557-.7 1.107-1.064 1.65Zm-89.809-1.113a1 1 0 1 1-1.662 1.113 55.018 55.018 0 0 1-1.063-1.651 1 1 0 0 1 1.701-1.053c.332.537.674 1.067 1.024 1.59Zm93.699-5.704a1 1 0 1 1-1.803-.865c.272-.568.534-1.141.786-1.72a1 1 0 0 1 1.834.8c-.262.6-.534 1.195-.817 1.785Zm-97.447-.865a1 1 0 1 1-1.803.865 54.752 54.752 0 0 1-.817-1.786 1 1 0 0 1 1.834-.799c.252.579.514 1.152.786 1.72Zm100.323-6.439a1 1 0 0 1-1.909-.597c.188-.6.365-1.205.532-1.814a1 1 0 1 1 1.929.528c-.173.632-.357 1.26-.552 1.883ZM5.408 70.842a1 1 0 0 1-1.909.597 54.659 54.659 0 0 1-.552-1.883 1 1 0 1 1 1.93-.528c.166.61.343 1.214.53 1.814ZM110.3 63.8a1 1 0 0 1-1.975-.317c.1-.62.189-1.245.267-1.872a1 1 0 0 1 1.985.247 56.3 56.3 0 0 1-.277 1.942ZM3.675 63.483A1 1 0 0 1 1.7 63.8a54.964 54.964 0 0 1-.277-1.942 1 1 0 0 1 1.985-.247c.078.627.167 1.251.267 1.872Z" clip-rule="evenodd"/><mask id="a" width="112" height="56" x="0" y="0" mask-type="alpha" maskUnits="userSpaceOnUse"><path fill="#C4C4C4" d="M0 0h112v56H0z"/></mask><g mask="url(#a)"><path fill="none" stroke="#C5BBAD" stroke-linecap="round" stroke-width="3" d="M110 56c0-29.823-24.177-54-54-54S2 26.177 2 56"/></g><circle cx="110" cy="56" r="4" fill="#fff"/></svg>